<svg width="11" height="6" viewBox="0 0 11 6" fill="grey" xmlns="http://www.w3.org/2000/svg">
<path d="M5.5473 0.222099L1.09725 4.67223C0.994248 4.77515 0.9375 4.91255 0.9375 5.05905C0.9375 5.20555 0.994248 5.34295 1.09725 5.44588L1.42489 5.7736C1.63839 5.98685 1.98538 5.98685 2.19855 5.7736L5.93543 2.03672L9.67645 5.77775C9.77946 5.88067 9.91678 5.9375 10.0632 5.9375C10.2098 5.9375 10.3471 5.88067 10.4502 5.77775L10.7777 5.45002C10.8808 5.34702 10.9375 5.2097 10.9375 5.0632C10.9375 4.9167 10.8808 4.7793 10.7777 4.67637L6.32364 0.222099C6.2203 0.11893 6.08234 0.0622635 5.93567 0.0625887C5.78844 0.0622635 5.65055 0.11893 5.5473 0.222099Z" />
</svg>


